PathFileType	4	(X/Y/Z)	Patient4_TMGait_0pt8_01_left_10.trc.trc
DataRate	CameraRate	NumFrames	NumMarkers	Units	OrigDataRate	OrigDataStartFrame	OrigNumFrames
89.743589743590	89.743589743590	5	33	mm	89.743589743590	53	       141
Frame#	Time	Sacral			L.Shoulder			Chest			R.Shoulder			Neck			R.ASIS			L.ASIS			R.Thigh.Superior			R.Thigh.Lateral			R.Thigh.Inferior			R.Patella			L.Thigh.Superior			L.Thigh.Lateral			L.Thigh.Inferior			L.Patella			L.Shank.Superior			L.Shank.Lateral			L.Shank.Inferior			R.Shank.Superior			R.Shank.Lateral			R.Shank.Inferior			R.Heel			R.Midfoot.Superior			R.Midfoot.Lateral			R.Toe			L.Heel			L.Midfoot.Lateral			L.Midfoot.Superior			L.Toe			L.Elbow			L.Wrist			R.Elbow			R.Wrist			
		X1	Y1	Z1	X2	Y2	Z2	X3	Y3	Z3	X4	Y4	Z4	X5	Y5	Z5	X6	Y6	Z6	X7	Y7	Z7	X8	Y8	Z8	X9	Y9	Z9	X10	Y10	Z10	X11	Y11	Z11	X12	Y12	Z12	X13	Y13	Z13	X14	Y14	Z14	X15	Y15	Z15	X16	Y16	Z16	X17	Y17	Z17	X18	Y18	Z18	X19	Y19	Z19	X20	Y20	Z20	X21	Y21	Z21	X22	Y22	Z22	X23	Y23	Z23	X24	Y24	Z24	X25	Y25	Z25	X26	Y26	Z26	X27	Y27	Z27	X28	Y28	Z28	X29	Y29	Z29	X30	Y30	Z30	X31	Y31	Z31	X32	Y32	Z32	X33	Y33	Z33	

53	10.959428571429	857.190986767375	1008.402697577860	443.038992385324	1033.732602992742	1441.225368815788	274.918798536208	1128.818881916404	1374.238959582929	441.553172828576	1031.892692232050	1442.487275189350	611.572785858023	1007.740350186648	1499.983955456330	431.117646775509	1079.694908577877	946.259960991825	568.480833733090	1078.650387469403	968.825252053832	294.397641626164	1159.233243640188	771.593365825071	550.550265859913	1108.615098014617	652.753175493782	624.950538386466	1205.426811803533	609.590111402026	556.785981642827	1216.052012722377	494.032787546304	582.030768746991	1120.543972663600	753.031624311560	319.066653091181	1024.957633240732	639.064339928073	263.135662701467	1107.536820630104	558.725770508235	324.797801109496	1105.452174346307	490.442134088539	336.564566008779	1078.926160838988	418.879795122943	330.463195429774	988.600648712255	303.976554901329	280.189471264063	1038.591152402775	194.715799192900	356.322579598556	1132.413244128528	424.749050000691	580.646331706183	1001.327439004420	401.308309307001	628.315796633043	979.203215869594	294.222437251871	578.590028593738	776.235382837176	256.597871746582	530.206570770190	931.910199556692	179.404584161524	587.433405542684	819.975154190480	190.902868391523	608.688765025513	979.871753221036	60.506616672245	619.863132402919	908.689609409618	39.067940421246	399.589511420810	985.778960823618	35.589381950391	321.710622398790	1067.840828947667	96.600975149898	351.355843845035	1197.123646789698	45.731792178210	329.509800164316	1046.314372700650	1093.284459333862	142.049947061194	1146.503370389405	852.057557006071	146.529157145200	985.724202360634	1094.084944965610	718.820055022398	1187.182364869043	936.536263325303	694.467355339865	
54	10.970571428571	856.010354989371	1008.520884467499	441.962457402443	1033.296992865726	1441.504245821581	274.430634571774	1127.494729521152	1374.574762334167	441.551599698598	1029.824533052424	1442.727911201117	611.107956542379	1006.535506058669	1500.295015080066	430.455683843601	1078.166889384492	946.886225205971	568.171059230118	1078.388516711606	969.598886756651	293.800716656094	1160.528574423849	775.443747934365	549.924335325990	1113.046039031703	655.807593695557	625.108276540232	1210.668696254707	614.661338286639	556.921715436839	1224.130019210589	499.437674304623	582.384281224366	1117.106910974335	752.214938403659	318.885055507600	1019.703799612459	639.426056032782	262.636622126412	1100.767915358164	557.932477102037	324.393729174095	1097.616459925782	489.885926916508	336.261591064692	1071.023855812305	418.699464653441	330.016862637860	980.176946680044	304.125926387762	279.854057992954	1029.902020653318	194.734358140270	356.047950596523	1142.498639568497	428.117448518916	580.835760911221	1012.239228884998	400.516024126559	628.275842313192	993.262125098114	292.904903537099	578.276823321033	791.389403921463	249.138045568155	529.829758087779	949.582550971582	176.909410554581	587.114582312351	837.234872121889	184.769032144822	608.272752064035	1001.156758952831	59.531519991866	619.066890430132	899.672298478957	39.122046497351	399.488744789558	976.799522059792	35.576398413673	321.647048189659	1058.885147177682	96.598721039045	351.222851737503	1188.133159783134	45.689978581292	329.445234060022	1055.714990114624	1094.973813007494	139.465149607348	1165.029209939251	857.674868342443	143.113080745872	977.374628367343	1094.796749758458	717.075385751095	1163.884969331115	918.097746877319	696.013329510627	
55	10.981714285714	854.824123443097	1008.552914092033	441.007696088736	1032.928211426683	1441.724987400781	274.072722348360	1126.255628947474	1374.797933045449	441.642242535954	1027.894315097219	1442.836456768050	610.759250955449	1005.377926708471	1500.493743629008	429.934877585173	1076.640896061576	947.376736976026	567.970683467713	1078.212123943283	970.281521913260	293.294987583107	1161.557415429777	779.027914009599	549.448754848079	1117.057890529395	658.647123884680	625.277605643674	1215.331893171243	619.418495724548	557.005571878218	1231.520873143830	504.728929230363	582.665288532318	1113.544314907808	751.336019884993	319.049490857955	1014.482035590723	639.766685342052	262.221325856995	1093.880315162421	557.137237472378	324.192839903282	1089.661100882024	489.345581653406	336.103374292853	1063.034517918774	418.530052814708	329.680262737905	971.741053120525	304.263250653918	279.574038335798	1021.158219550303	194.747016448526	355.848996353992	1152.227954360500	431.218126680248	581.028244149558	1023.110865232952	398.918373505364	628.438282514415	1007.781111482572	290.755050085551	578.252930423693	807.405509059207	239.945822145341	529.933475674467	968.288643435338	173.485020912262	587.325646815517	855.607795782607	177.251895345656	608.396677222795	1023.913453512280	57.869463711711	618.898898027509	890.651255791044	39.162840546885	399.401630724122	967.815071314135	35.560064848634	321.592647680486	1049.916932250644	96.599509860205	351.111216314983	1179.140139400704	45.655822584299	329.396870804410	1064.620469576788	1096.890126694518	137.100335996217	1183.186121509798	863.999132896878	140.121282154210	969.549567907024	1095.362468677466	715.344116631060	1139.253343071544	901.023926580590	697.639265968947	
56	10.992857142857	853.637459619459	1008.483106545622	440.174885017284	1032.647953342932	1441.869913844886	273.852900040171	1125.117010343896	1374.886357832278	441.835936374962	1026.102607206936	1442.776759262255	610.542888095586	1004.281720492225	1500.559547022406	429.571602346138	1075.125729509780	947.699344925311	567.875672458352	1078.078261459854	970.826250608552	292.900843203341	1162.318686865115	782.271429753432	549.088496110704	1120.623701841582	661.195119460147	625.425083677112	1219.379950239718	623.755564580242	556.991260111430	1238.173876010990	509.810037735909	582.829042499986	1109.878783083490	750.374812359090	319.503520822209	1009.293529344940	640.068258510300	261.875845848599	1086.897635061834	556.329793055502	324.160234716032	1081.623166525960	488.813299512732	336.053640792415	1054.980098704358	418.363472829998	329.433363745525	963.305427122078	304.381421332026	279.336624090845	1012.374924920486	194.746071749630	355.717514758163	1161.530037860083	434.013120282724	581.206486437453	1033.931657598237	396.554413914898	628.797503466271	1022.730527807492	287.860910981929	578.527709722491	824.347759346398	229.181973616030	530.548726651908	987.975733741350	169.289229961744	588.071470201231	875.111596286908	168.549280427108	609.093304061392	1048.034106828555	55.753145748445	619.401043109739	881.630444792842	39.189114484419	399.329442343441	958.826758812292	35.539704628882	321.546990344245	1040.938029752357	96.603168471605	351.019908817042	1170.147263321949	45.628481802096	329.362096142304	1072.921141753653	1098.965606167842	134.932971891084	1200.891794338465	871.015069696812	137.553747929897	962.143964571875	1095.757342072876	713.638444178468	1113.508133149407	885.603184188193	699.330305010115	
57	11.004000000000	852.463993374298	1008.299660129192	439.465642279458	1032.471151498757	1441.922498653151	273.779810670724	1124.091283939766	1374.821039787487	442.143095019227	1024.450585487667	1442.520830240377	610.473318401025	1003.259527942700	1500.474895329284	429.383453268158	1073.635253583322	947.833051919273	567.885442109638	1077.938874042722	971.188733923800	292.642109562136	1162.806618551178	785.103119781373	548.805069718036	1123.709130261879	663.378400660238	625.519568730722	1222.772793689830	627.571265470963	556.837546462834	1244.041424096657	514.588301199571	582.832714567583	1106.145391609201	749.313175303430	320.177650774971	1004.135004443914	640.316598013895	261.589449026933	1079.845012202837	555.500273518323	324.260820141106	1073.540287518645	488.280047127961	336.079019072072	1046.880455159690	418.193046730709	329.258706893186	954.879331728032	304.476205600506	279.132427921021	1003.566594180563	194.725919132505	355.645998195484	1170.334235853552	436.476440459952	581.356061692236	1044.697398483856	393.477743497031	629.348181687899	1038.081628689619	284.332196742343	579.102696438677	842.288082847983	217.035767014723	531.693353720337	1008.595297580533	164.507758188819	589.341811984423	895.767681272979	158.884572657088	610.378419082582	1073.409827398736	53.456216949677	620.584757086331	872.613263870499	39.200405673728	399.273381262142	949.835331006896	35.515260974362	321.510370822548	1031.949719492515	96.609226032965	350.948573320373	1161.155608942531	45.608299764670	329.337906445334	1080.536884271677	1101.126501204786	132.942470047750	1218.066587031289	878.700869752321	135.403551056085	955.038055884089	1095.989585647446	711.978579825426	1086.932341940425	872.085130336150	701.071773158325	
